<?xml version="1.0" encoding="UTF-8" standalone="no"?><!DOCTYPE svg PUBLIC "-//W3C//DTD SVG 1.1//EN" "http://www.w3.org/Graphics/SVG/1.1/DTD/svg11.dtd"><svg width="100%" height="100%" viewBox="0 0 143 355" version="1.1" xmlns="http://www.w3.org/2000/svg" xmlns:xlink="http://www.w3.org/1999/xlink" xml:space="preserve" xmlns:serif="http://www.serif.com/" style="fill-rule:evenodd;clip-rule:evenodd;stroke-linecap:round;stroke-linejoin:bevel;"><g><rect x="1.601" y="1.601" width="139.013" height="351.097" style="fill:none;"/><clipPath id="_clip1"><rect x="1.601" y="1.601" width="139.013" height="351.097"/></clipPath><g clip-path="url(#_clip1)"><rect id="Color" x="2.076" y="182.421" width="138.633" height="170.187" style="fill:#e3e3e3;"/><g id="Texture"><g><clipPath id="_clip2"><rect x="2.076" y="245.714" width="138.633" height="106.893" clip-rule="nonzero"/></clipPath><g clip-path="url(#_clip2)"><path d="M135.633,318.085l0,0" style="fill:none;fill-rule:nonzero;stroke:#000;stroke-width:1.38px;"/><path d="M87.901,292.928l0,0" style="fill:none;fill-rule:nonzero;stroke:#000;stroke-width:1.38px;"/><path d="M98.129,317.386l0,0" style="fill:none;fill-rule:nonzero;stroke:#000;stroke-width:1.38px;"/><path d="M64.716,330.663l0,0" style="fill:none;fill-rule:nonzero;stroke:#000;stroke-width:1.38px;"/><path d="M110.404,333.458l0,0" style="fill:none;fill-rule:nonzero;stroke:#000;stroke-width:1.38px;"/><path d="M52.443,348.133l0,0" style="fill:none;fill-rule:nonzero;stroke:#000;stroke-width:1.38px;"/><path d="M37.199,343.542l0,0" style="fill:none;fill-rule:nonzero;stroke:#000;stroke-width:1.38px;"/><path d="M49.715,315.989l0,0" style="fill:none;fill-rule:nonzero;stroke:#000;stroke-width:1.38px;"/><path d="M9.483,313.892l0,0" style="fill:none;fill-rule:nonzero;stroke:#000;stroke-width:1.38px;"/><path d="M137.679,329.266l0,0" style="fill:none;fill-rule:nonzero;stroke:#000;stroke-width:1.38px;"/><path d="M68.808,255.193l0,0" style="fill:none;fill-rule:nonzero;stroke:#000;stroke-width:1.38px;"/><path d="M106.312,310.398l0,0" style="fill:none;fill-rule:nonzero;stroke:#000;stroke-width:1.38px;"/><path d="M89.265,349.531l0,0" style="fill:none;fill-rule:nonzero;stroke:#000;stroke-width:1.38px;"/><path d="M91.068,328.169l0,0" style="fill:none;fill-rule:nonzero;stroke:#000;stroke-width:1.38px;"/><path d="M28.608,337.736l0,0" style="fill:none;fill-rule:nonzero;stroke:#000;stroke-width:1.38px;"/><path d="M90.661,338.435l0,0" style="fill:none;fill-rule:nonzero;stroke:#000;stroke-width:1.38px;"/><path d="M110.843,316.289l0,0" style="fill:none;fill-rule:nonzero;stroke:#000;stroke-width:1.38px;"/><path d="M50.429,339.134l0,0" style="fill:none;fill-rule:nonzero;stroke:#000;stroke-width:1.38px;"/><path d="M23.153,351.712l0,0" style="fill:none;fill-rule:nonzero;stroke:#000;stroke-width:1.38px;"/><path d="M109.072,353.11l0,0" style="fill:none;fill-rule:nonzero;stroke:#000;stroke-width:1.38px;"/><path d="M63.792,311.398l0,0" style="fill:none;fill-rule:nonzero;stroke:#000;stroke-width:1.38px;"/><path d="M76.749,302.313l0,0" style="fill:none;fill-rule:nonzero;stroke:#000;stroke-width:1.38px;"/><path d="M57.655,322.578l0,0" style="fill:none;fill-rule:nonzero;stroke:#000;stroke-width:1.38px;"/><path d="M14.014,304.41l0,0" style="fill:none;fill-rule:nonzero;stroke:#000;stroke-width:1.38px;"/><path d="M58.337,270.168l0,0" style="fill:none;fill-rule:nonzero;stroke:#000;stroke-width:1.38px;"/></g></g><g><clipPath id="_clip3"><rect x="2.076" y="182.421" width="138.633" height="63.293" clip-rule="nonzero"/></clipPath><g clip-path="url(#_clip3)"><path d="M103.459,228.816c5.15,-2.313 8.227,-12.093 3.937,-11.69c-4.297,0.407 -13.27,9.017 -11.977,13.773c1.29,4.76 5.547,-0.963 8.04,-2.083Z" style="fill:none;fill-rule:nonzero;stroke:#000;stroke-width:0.83px;stroke-linecap:butt;stroke-linejoin:miter;"/><path d="M143.574,214.963c-5.623,0 -12.273,7.687 -8.183,9.087c4.093,1.397 15.683,-2.8 16.367,-7.69c0.68,-4.89 -5.457,-1.397 -8.183,-1.397Z" style="fill:none;fill-rule:nonzero;stroke:#000;stroke-width:0.83px;stroke-linecap:butt;stroke-linejoin:miter;"/><path d="M30.38,205.18c-6.137,3.607 -16.847,4.99 -20.017,2.453c-2.967,-2.38 -4.633,-7.583 7.03,-8.737c11.663,-1.147 19.233,2.61 12.987,6.283Z" style="fill:none;fill-rule:nonzero;stroke:#000;stroke-width:0.83px;stroke-linecap:butt;stroke-linejoin:miter;"/><path d="M34.471,180.024c5.153,-9.243 12.957,-3.493 10.91,1.397c-2.047,4.89 -13.637,3.493 -10.91,-1.397Z" style="fill:none;fill-rule:nonzero;stroke:#000;stroke-width:0.83px;stroke-linecap:butt;stroke-linejoin:miter;"/><path d="M129.015,190.702c4.193,-6.273 13.697,-12.593 17.823,-11.677c3.863,0.857 7.757,5 -2.757,11.54c-10.51,6.537 -19.337,6.527 -15.067,0.137Z" style="fill:none;fill-rule:nonzero;stroke:#000;stroke-width:0.83px;stroke-linecap:butt;stroke-linejoin:miter;"/><path d="M36.125,219.836c-5.277,-1.993 -14.11,2.867 -10.743,5.627c1.047,1.14 15.663,2.937 17.957,-1.417c2.283,-4.347 -4.653,-3.24 -7.213,-4.21Z" style="fill:none;fill-rule:nonzero;stroke:#000;stroke-width:0.83px;stroke-linecap:butt;stroke-linejoin:miter;"/><path d="M74.021,198.891c-5.623,0 -12.273,7.687 -8.183,9.087c4.093,1.397 15.683,-2.8 16.367,-7.69c0.68,-4.89 -5.457,-1.397 -8.183,-1.397Z" style="fill:none;fill-rule:nonzero;stroke:#000;stroke-width:0.83px;stroke-linecap:butt;stroke-linejoin:miter;"/><path d="M1.74,244.313c-5.623,0 -12.273,7.687 -8.183,9.087c4.093,1.397 15.683,-2.8 16.367,-7.69c0.68,-4.89 -5.457,-1.397 -8.183,-1.397Z" style="fill:none;fill-rule:nonzero;stroke:#000;stroke-width:0.83px;stroke-linecap:butt;stroke-linejoin:miter;"/><path d="M88.341,243.614c-5.623,0 -12.273,7.687 -8.183,9.087c4.093,1.397 15.683,-2.8 16.367,-7.69c0.68,-4.89 -5.457,-1.397 -8.183,-1.397Z" style="fill:none;fill-rule:nonzero;stroke:#000;stroke-width:0.83px;stroke-linecap:butt;stroke-linejoin:miter;"/><path d="M71.293,219.855c-5.153,-9.243 -12.957,-3.493 -10.91,1.397c2.047,4.89 13.637,3.493 10.91,-1.397Z" style="fill:none;fill-rule:nonzero;stroke:#000;stroke-width:0.83px;stroke-linecap:butt;stroke-linejoin:miter;"/><path d="M101.19,192.34c1.177,5.637 9.893,10.7 10.377,6.31c0.48,-4.39 -5.937,-15.14 -10.747,-14.807c-4.807,0.337 -0.197,5.763 0.37,8.497Z" style="fill:none;fill-rule:nonzero;stroke:#000;stroke-width:0.83px;stroke-linecap:butt;stroke-linejoin:miter;"/><path d="M142.346,240.538c-2.167,-4.037 -13.167,-5.153 -12.55,-1.677c0.62,3.48 7.96,10.19 11.57,8.793c3.607,-1.4 2.033,-5.157 0.98,-7.117Z" style="fill:none;fill-rule:nonzero;stroke:#000;stroke-width:0.83px;stroke-linecap:butt;stroke-linejoin:miter;"/><path d="M49.473,198.192l0,0" style="fill:none;fill-rule:nonzero;stroke:#000;stroke-width:1.38px;"/><path d="M35.835,195.397l0,0" style="fill:none;fill-rule:nonzero;stroke:#000;stroke-width:1.38px;"/><path d="M91.75,183.517l0,0" style="fill:none;fill-rule:nonzero;stroke:#000;stroke-width:1.38px;"/><path d="M5.15,183.517l0,0" style="fill:none;fill-rule:nonzero;stroke:#000;stroke-width:1.38px;"/><path d="M90.661,202.169l0,0" style="fill:none;fill-rule:nonzero;stroke:#000;stroke-width:1.38px;"/><path d="M57.248,211.253l0,0" style="fill:none;fill-rule:nonzero;stroke:#000;stroke-width:1.38px;"/><path d="M25.199,212.651l0,0" style="fill:none;fill-rule:nonzero;stroke:#000;stroke-width:1.38px;"/><path d="M21.515,193.301l0,0" style="fill:none;fill-rule:nonzero;stroke:#000;stroke-width:1.38px;"/><path d="M102.253,208.458l0,0" style="fill:none;fill-rule:nonzero;stroke:#000;stroke-width:1.38px;"/><path d="M115.891,219.639l0,0" style="fill:none;fill-rule:nonzero;stroke:#000;stroke-width:1.38px;"/><path d="M115.616,194l0,0" style="fill:none;fill-rule:nonzero;stroke:#000;stroke-width:1.38px;"/><path d="M61.747,187.011l0,0" style="fill:none;fill-rule:nonzero;stroke:#000;stroke-width:1.38px;"/><path d="M11.969,223.349l0,0" style="fill:none;fill-rule:nonzero;stroke:#000;stroke-width:1.38px;"/><path d="M6.513,214.264l0,0" style="fill:none;fill-rule:nonzero;stroke:#000;stroke-width:1.38px;"/><path d="M26.97,232.433l0,0" style="fill:none;fill-rule:nonzero;stroke:#000;stroke-width:1.38px;"/><path d="M45.381,239.421l0,0" style="fill:none;fill-rule:nonzero;stroke:#000;stroke-width:1.38px;"/><path d="M56.973,228.24l0,0" style="fill:none;fill-rule:nonzero;stroke:#000;stroke-width:1.38px;"/><path d="M81.522,236.626l0,0" style="fill:none;fill-rule:nonzero;stroke:#000;stroke-width:1.38px;"/><path d="M108.797,239.421l0,0" style="fill:none;fill-rule:nonzero;stroke:#000;stroke-width:1.38px;"/><path d="M123.799,242.216l0,0" style="fill:none;fill-rule:nonzero;stroke:#000;stroke-width:1.38px;"/><path d="M67.884,233.831l0,0" style="fill:none;fill-rule:nonzero;stroke:#000;stroke-width:1.38px;"/><path d="M45.381,217.06l0,0" style="fill:none;fill-rule:nonzero;stroke:#000;stroke-width:1.38px;"/><path d="M78.112,191.903l0,0" style="fill:none;fill-rule:nonzero;stroke:#000;stroke-width:1.38px;"/><path d="M127.483,209.157l0,0" style="fill:none;fill-rule:nonzero;stroke:#000;stroke-width:1.38px;"/></g></g><path d="M1.773,182.799l139.25,0" style="fill:none;fill-rule:nonzero;stroke:#000;stroke-width:0.68px;stroke-linecap:butt;stroke-linejoin:miter;stroke-miterlimit:10;"/><path d="M2.664,259.386l0,0" style="fill:none;fill-rule:nonzero;stroke:#000;stroke-width:1.38px;"/><g><clipPath id="_clip4"><rect x="2.076" y="245.714" width="138.633" height="106.893" clip-rule="nonzero"/></clipPath><g clip-path="url(#_clip4)"><path d="M42.473,276.542c6.54,-3.593 17.817,-4.723 21.067,-1.967c3.04,2.587 4.64,8.1 -7.627,8.95c-12.263,0.853 -20.1,-3.32 -13.44,-6.983Z" style="fill:none;fill-rule:nonzero;stroke:#000;stroke-width:0.83px;stroke-linecap:butt;stroke-linejoin:miter;"/><path d="M59.347,294.129c-4.403,-3.583 -14.273,-1.803 -11.92,1.893c2.353,3.7 13.973,7.813 17.48,4.423c3.5,-3.4 -3.423,-4.577 -5.56,-6.317Z" style="fill:none;fill-rule:nonzero;stroke:#000;stroke-width:0.83px;stroke-linecap:butt;stroke-linejoin:miter;"/><path d="M117.71,293.766c-4.313,-3.693 -14.227,-2.163 -11.963,1.593c2.263,3.763 13.79,8.163 17.37,4.857c3.583,-3.307 -3.31,-4.657 -5.407,-6.45Z" style="fill:none;fill-rule:nonzero;stroke:#000;stroke-width:0.83px;stroke-linecap:butt;stroke-linejoin:miter;"/><path d="M121.072,265.277c-5.623,0 -12.273,7.687 -8.183,9.087c4.093,1.397 15.683,-2.797 16.367,-7.69c0.68,-4.89 -5.457,-1.397 -8.183,-1.397Z" style="fill:none;fill-rule:nonzero;stroke:#000;stroke-width:0.83px;stroke-linecap:butt;stroke-linejoin:miter;"/><path d="M132.786,338.874c-3.463,-4.54 -13.47,-5.173 -12.023,-1.013c1.447,4.167 11.813,10.943 15.99,8.477c4.18,-2.463 -2.287,-5.263 -3.967,-7.463Z" style="fill:none;fill-rule:nonzero;stroke:#000;stroke-width:0.83px;stroke-linecap:butt;stroke-linejoin:miter;"/><path d="M76.749,314.193c-5.623,0 -12.273,7.687 -8.183,9.087c4.093,1.397 15.683,-2.8 16.367,-7.69c0.68,-4.89 -5.457,-1.397 -8.183,-1.397Z" style="fill:none;fill-rule:nonzero;stroke:#000;stroke-width:0.83px;stroke-linecap:butt;stroke-linejoin:miter;"/><path d="M40.608,328.868c5.153,-9.243 7.5,-2.097 5.457,2.793c-2.047,4.893 -8.183,2.097 -5.457,-2.793Z" style="fill:none;fill-rule:nonzero;stroke:#000;stroke-width:0.83px;stroke-linecap:butt;stroke-linejoin:miter;"/><path d="M18.106,265.277c5.153,-9.243 12.957,-3.493 10.91,1.397c-2.047,4.893 -13.637,3.493 -10.91,-1.397Z" style="fill:none;fill-rule:nonzero;stroke:#000;stroke-width:0.83px;stroke-linecap:butt;stroke-linejoin:miter;"/><path d="M94.478,261.783c5.153,-9.243 12.957,-3.493 10.91,1.397c-2.047,4.893 -13.637,3.493 -10.91,-1.397Z" style="fill:none;fill-rule:nonzero;stroke:#000;stroke-width:0.83px;stroke-linecap:butt;stroke-linejoin:miter;"/><path d="M14.96,318.912c-4.503,-3.443 -14.32,-1.36 -11.857,2.267c2.467,3.627 14.2,7.373 17.6,3.87c3.403,-3.507 -3.553,-4.467 -5.743,-6.137Z" style="fill:none;fill-rule:nonzero;stroke:#000;stroke-width:0.83px;stroke-linecap:butt;stroke-linejoin:miter;"/><path d="M-5.761,282.048c5.153,-9.243 12.957,-3.493 10.91,1.397c-2.047,4.89 -13.637,3.493 -10.91,-1.397Z" style="fill:none;fill-rule:nonzero;stroke:#000;stroke-width:0.83px;stroke-linecap:butt;stroke-linejoin:miter;"/><path d="M161.415,288.176c-7.247,1.84 -18.51,0.07 -21.01,-3.44c-2.337,-3.297 -2.56,-9.08 9.6,-6.79c12.167,2.293 18.79,8.357 11.41,10.23Z" style="fill:none;fill-rule:nonzero;stroke:#000;stroke-width:0.83px;stroke-linecap:butt;stroke-linejoin:miter;"/><path d="M1.74,244.313c-5.623,0 -12.273,7.687 -8.183,9.087c4.093,1.397 15.683,-2.8 16.367,-7.69c0.68,-4.89 -5.457,-1.397 -8.183,-1.397Z" style="fill:none;fill-rule:nonzero;stroke:#000;stroke-width:0.83px;stroke-linecap:butt;stroke-linejoin:miter;"/><path d="M23.561,305.108c5.153,-9.243 12.957,-3.493 10.91,1.397c-2.047,4.89 -13.637,3.493 -10.91,-1.397Z" style="fill:none;fill-rule:nonzero;stroke:#000;stroke-width:0.83px;stroke-linecap:butt;stroke-linejoin:miter;"/><path d="M128.572,310c-5.623,0 -12.273,7.687 -8.183,9.087c4.093,1.397 15.683,-2.8 16.367,-7.69c0.68,-4.89 -5.457,-1.397 -8.183,-1.397Z" style="fill:none;fill-rule:nonzero;stroke:#000;stroke-width:0.83px;stroke-linecap:butt;stroke-linejoin:miter;"/><path d="M138.801,264.578c5.153,-9.243 7.5,-2.097 5.457,2.793c-2.047,4.893 -8.183,2.097 -5.457,-2.793Z" style="fill:none;fill-rule:nonzero;stroke:#000;stroke-width:0.83px;stroke-linecap:butt;stroke-linejoin:miter;"/><path d="M3.104,347.036c-5.623,0 -12.273,7.687 -8.183,9.087c4.093,1.397 15.683,-2.8 16.367,-7.69c0.68,-4.89 -5.457,-1.397 -8.183,-1.397Z" style="fill:none;fill-rule:nonzero;stroke:#000;stroke-width:0.83px;stroke-linecap:butt;stroke-linejoin:miter;"/><path d="M59.965,249.731c-4.503,-3.443 -14.32,-1.36 -11.857,2.27c2.467,3.623 14.2,7.37 17.6,3.863c3.403,-3.503 -3.553,-4.463 -5.743,-6.133Z" style="fill:none;fill-rule:nonzero;stroke:#000;stroke-width:0.83px;stroke-linecap:butt;stroke-linejoin:miter;"/><path d="M97.887,347.735c-10.163,2.19 -6.513,-4.353 -1.59,-6.033c4.93,-1.687 6.97,4.873 1.59,6.033Z" style="fill:none;fill-rule:nonzero;stroke:#000;stroke-width:0.83px;stroke-linecap:butt;stroke-linejoin:miter;"/><path d="M58.127,342.404c4.98,-5.11 14.933,-9.32 18.627,-7.73c3.467,1.5 6.397,6.057 -4.527,10.29c-10.93,4.233 -19.17,2.643 -14.1,-2.56Z" style="fill:none;fill-rule:nonzero;stroke:#000;stroke-width:0.83px;stroke-linecap:butt;stroke-linejoin:miter;"/><path d="M88.341,243.614c-5.623,0 -12.273,7.687 -8.183,9.087c4.093,1.397 15.683,-2.8 16.367,-7.69c0.68,-4.89 -5.457,-1.397 -8.183,-1.397Z" style="fill:none;fill-rule:nonzero;stroke:#000;stroke-width:0.83px;stroke-linecap:butt;stroke-linejoin:miter;"/><path d="M86.295,282.747c-10.163,2.19 -6.513,-4.353 -1.59,-6.033c4.93,-1.687 6.97,4.873 1.59,6.033Z" style="fill:none;fill-rule:nonzero;stroke:#000;stroke-width:0.83px;stroke-linecap:butt;stroke-linejoin:miter;"/><path d="M129.8,238.862c0.617,3.48 7.957,10.19 11.567,8.793c3.607,-1.397 2.03,-5.157 0.983,-7.117" style="fill:none;fill-rule:nonzero;stroke:#000;stroke-width:0.83px;stroke-linecap:butt;stroke-linejoin:miter;"/><path d="M4.71,269.868l0,0" style="fill:none;fill-rule:nonzero;stroke:#000;stroke-width:1.38px;"/><path d="M14.256,270.567l0,0" style="fill:none;fill-rule:nonzero;stroke:#000;stroke-width:1.38px;"/><path d="M25.167,286.639l0,0" style="fill:none;fill-rule:nonzero;stroke:#000;stroke-width:1.38px;"/><path d="M10.847,293.627l0,0" style="fill:none;fill-rule:nonzero;stroke:#000;stroke-width:1.38px;"/><path d="M40.168,302.711l0,0" style="fill:none;fill-rule:nonzero;stroke:#000;stroke-width:1.38px;"/><path d="M27.212,322.976l0,0" style="fill:none;fill-rule:nonzero;stroke:#000;stroke-width:1.38px;"/><path d="M10.165,332.061l0,0" style="fill:none;fill-rule:nonzero;stroke:#000;stroke-width:1.38px;"/><path d="M89.023,307.205l0,0" style="fill:none;fill-rule:nonzero;stroke:#000;stroke-width:1.38px;"/><path d="M42.896,273.362l0,0" style="fill:none;fill-rule:nonzero;stroke:#000;stroke-width:1.38px;"/><path d="M83.128,264.278l0,0" style="fill:none;fill-rule:nonzero;stroke:#000;stroke-width:1.38px;"/><path d="M98.811,286.639l0,0" style="fill:none;fill-rule:nonzero;stroke:#000;stroke-width:1.38px;"/><path d="M113.813,278.952l0,0" style="fill:none;fill-rule:nonzero;stroke:#000;stroke-width:1.38px;"/><path d="M128.133,292.229l0,0" style="fill:none;fill-rule:nonzero;stroke:#000;stroke-width:1.38px;"/><path d="M139.483,297.421l0,0" style="fill:none;fill-rule:nonzero;stroke:#000;stroke-width:1.38px;"/><path d="M131.542,256.591l0,0" style="fill:none;fill-rule:nonzero;stroke:#000;stroke-width:1.38px;"/><path d="M113.813,257.29l0,0" style="fill:none;fill-rule:nonzero;stroke:#000;stroke-width:1.38px;"/><path d="M119.268,262.181l0,0" style="fill:none;fill-rule:nonzero;stroke:#000;stroke-width:1.38px;"/><path d="M40.168,252.398l0,0" style="fill:none;fill-rule:nonzero;stroke:#000;stroke-width:1.38px;"/></g></g></g><path id="Hole" d="M53.993,182.418l0,115.25l17.377,8.517l0.057,0l17.377,-8.517l0,-115.25l-34.81,0Z" style="fill:url(#_Linear5);fill-rule:nonzero;"/><g id="Drill-Bit" serif:id="Drill Bit"><path d="M56.046,119.042l0.01,44.7l0.52,6.937l1.59,7.607l1.62,4.713l-1.62,5.14l-1.513,6.01l-0.443,55.367l-0.153,8.463l1.69,11.537l2.367,7.293l-1.947,6.79l-0.107,11.697l11.393,4.837l4.46,0l2.2,-2.13l2.347,-5.153l5.64,-9.19l-2.34,-6.84l2.34,-9.61l2.307,-9.993l0,-53.647l-1.75,-11.43l-2.67,-6.907l2.597,-8.093l1.823,-8.23l0.333,-11.317l-0.017,-38.55c-8.823,11.133 -22.477,-8.99 -30.677,0" style="fill:#b3b3b3;fill-rule:nonzero;"/><path d="M74.405,300.128c0,0 5.33,-4.637 5.33,-16.387l8.71,0l-0.217,13.897l-14.967,8.09l-2.903,0.103l-15.28,-6.947l-0.723,-1.97l0.207,-13.173l2.613,0" style="fill:#b3b3b3;fill-rule:nonzero;"/><path d="M74.168,299.858l0.207,-0.203c0.967,-0.997 4.997,-5.727 5,-15.913l0.103,-0.257l0.257,-0.103l8.71,0l0.257,0.107l0.103,0.26l-0.217,13.897l-0.187,0.31l-14.963,8.09l-0.16,0.04l-2.907,0.103l-0.163,-0.03l-15.28,-6.947l-0.19,-0.203l-0.723,-1.967l-0.023,-0.13l0.21,-13.173l0.36,-0.357l2.613,0l0.36,0.36l-0.36,0.36l-2.257,0l-0.2,12.753l0.643,1.76l15.067,6.853l2.74,-0.093l14.703,-7.95l0.207,-13.323l-8.343,0l0,-0.36l0.36,0c0.007,11.863 -5.393,16.613 -5.453,16.66l-0.507,-0.037l0.033,-0.507Z" style="fill-rule:nonzero;"/><path d="M58.517,283.6l-0.103,11.7l-0.367,0.353l-0.357,-0.36l0.107,-11.7l0.363,-0.357l0.357,0.363Z" style="fill-rule:nonzero;"/><path d="M74.758,291.415l-0.083,0.35c0,0 -0.583,-0.137 -1.56,-0.28c-0.973,-0.14 -2.333,-0.277 -3.86,-0.277c-3.68,-0.003 -8.287,0.823 -10.913,4.303l-0.29,-0.22l0.137,-0.33l11.33,4.81l4.387,0l0,0.357l-0.323,-0.163c0,0 0.067,-0.127 0.173,-0.383c0.317,-0.773 0.957,-2.657 0.957,-5.137c0,-0.913 -0.087,-1.91 -0.31,-2.957l0.357,-0.073l-0.083,0.35l0.083,-0.35l0.353,-0.073c0.23,1.103 0.323,2.143 0.323,3.103c-0.003,3.473 -1.197,5.817 -1.21,5.847l-0.32,0.2l-4.463,0l-0.14,-0.03l-11.39,-4.837l-0.207,-0.24l0.057,-0.307c2.87,-3.77 7.723,-4.59 11.493,-4.59c3.143,0 5.57,0.573 5.587,0.577l0.27,0.277l-0.353,0.073Z" style="fill-rule:nonzero;"/><path d="M74.449,291.232c0,0 0.74,-1.257 1.86,-3.467c3.357,-6.62 10.067,-21.723 10.06,-36.317l-0.003,-0.677c-0.093,-6.603 -0.123,-13.233 -0.123,-19.137c0,-11.81 0.123,-20.723 0.123,-20.723l0.367,-0.353l0.357,0.363c0,0.007 -0.03,2.227 -0.063,5.93c-0.03,3.703 -0.063,8.88 -0.063,14.783c0,5.9 0.033,12.527 0.127,19.127l0.003,0.687c-0.007,19.74 -12.013,40.123 -12.023,40.15l-0.493,0.127l-0.127,-0.493Z" style="fill-rule:nonzero;"/><path d="M57.797,283.598c0.02,-2.01 1.82,-6.153 4.5,-11.75c4.02,-8.367 10.047,-19.82 15.063,-31.047c5.017,-11.213 9.017,-22.233 9.01,-29.597l-0.007,-0.287c-0.14,-9.877 -1.323,-16.263 -2.467,-20.173c-0.57,-1.95 -1.13,-3.283 -1.543,-4.127c-0.21,-0.42 -0.377,-0.713 -0.497,-0.903l-0.17,-0.267l0.07,-0.5l0.503,0.07c0.063,0.073 4.54,6.033 4.827,25.89l0.003,0.297c-0.013,10.13 -7.18,26.38 -14.32,41.09c-3.577,7.35 -7.15,14.297 -9.823,19.867c-2.673,5.543 -4.447,9.787 -4.43,11.437l-0.357,0.36l-0.363,-0.36Z" style="fill-rule:nonzero;"/><path d="M87.087,119.036l0,0.273c-0.017,10.117 -7.677,24.893 -15.303,39.743c-7.64,14.827 -15.243,29.727 -15.23,39.703l0,53.56l-0.353,0.357l-0.363,-0.357l0,-53.56c0.013,-10.307 7.673,-25.18 15.303,-40.033c7.64,-14.83 15.247,-29.633 15.227,-39.413l-0.003,-0.263l0.357,-0.363l0.367,0.353Z" style="fill-rule:nonzero;"/><path d="M59.769,276.942c-2.88,-7.177 -4.083,-14.227 -4.08,-21.117c0.003,-17.463 7.703,-33.92 15.373,-49.243c7.677,-15.327 15.313,-29.537 15.303,-42.4l-0.147,-45.14l0.357,-0.36l0.363,0.357l0.147,45.143c-0.01,13.147 -7.717,27.403 -15.377,42.723c-7.67,15.317 -15.303,31.673 -15.3,48.92c0,6.807 1.183,13.757 4.03,20.853l-0.203,0.467l-0.467,-0.203Z" style="fill-rule:nonzero;"/><path d="M56.555,119.042l0,40.493l-0.357,0.36l-0.363,-0.36l0,-40.493l0.363,-0.357l0.357,0.357Z" style="fill-rule:nonzero;"/><path d="M59.769,184.157c-2.88,-7.177 -4.083,-14.22 -4.08,-21.113c0,-15.547 6.11,-30.297 12.86,-44.16l0.48,-0.17l0.17,0.483c-6.743,13.84 -12.793,28.49 -12.79,43.847c0,6.807 1.183,13.757 4.03,20.85l-0.203,0.467l-0.467,-0.203Z" style="fill-rule:nonzero;"/><path d="M82.087,276.7l2.34,6.843l-0.22,0.457l-0.46,-0.223l-2.343,-6.843l0.227,-0.457l0.457,0.223Z" style="fill-rule:nonzero;"/></g><rect id="Color1" serif:id="Color" x="2.076" y="182.421" width="138.633" height="170.187" style="fill:#e3e3e3;"/><g id="Texture1" serif:id="Texture"><g><clipPath id="_clip6"><rect x="1.904" y="245.714" width="138.633" height="106.893" clip-rule="nonzero"/></clipPath><g clip-path="url(#_clip6)"><path d="M135.461,318.085l0,0" style="fill:none;fill-rule:nonzero;stroke:#000;stroke-width:1.38px;"/><path d="M87.729,292.928l0,0" style="fill:none;fill-rule:nonzero;stroke:#000;stroke-width:1.38px;"/><path d="M97.957,317.386l0,0" style="fill:none;fill-rule:nonzero;stroke:#000;stroke-width:1.38px;"/><path d="M64.544,330.663l0,0" style="fill:none;fill-rule:nonzero;stroke:#000;stroke-width:1.38px;"/><path d="M110.231,333.458l0,0" style="fill:none;fill-rule:nonzero;stroke:#000;stroke-width:1.38px;"/><path d="M52.27,348.133l0,0" style="fill:none;fill-rule:nonzero;stroke:#000;stroke-width:1.38px;"/><path d="M37.026,343.542l0,0" style="fill:none;fill-rule:nonzero;stroke:#000;stroke-width:1.38px;"/><path d="M49.543,315.989l0,0" style="fill:none;fill-rule:nonzero;stroke:#000;stroke-width:1.38px;"/><path d="M9.311,313.892l0,0" style="fill:none;fill-rule:nonzero;stroke:#000;stroke-width:1.38px;"/><path d="M137.507,329.266l0,0" style="fill:none;fill-rule:nonzero;stroke:#000;stroke-width:1.38px;"/><path d="M68.636,255.193l0,0" style="fill:none;fill-rule:nonzero;stroke:#000;stroke-width:1.38px;"/><path d="M106.14,310.398l0,0" style="fill:none;fill-rule:nonzero;stroke:#000;stroke-width:1.38px;"/><path d="M89.092,349.531l0,0" style="fill:none;fill-rule:nonzero;stroke:#000;stroke-width:1.38px;"/><path d="M90.896,328.169l0,0" style="fill:none;fill-rule:nonzero;stroke:#000;stroke-width:1.38px;"/><path d="M28.436,337.736l0,0" style="fill:none;fill-rule:nonzero;stroke:#000;stroke-width:1.38px;"/><path d="M90.488,338.435l0,0" style="fill:none;fill-rule:nonzero;stroke:#000;stroke-width:1.38px;"/><path d="M110.671,316.289l0,0" style="fill:none;fill-rule:nonzero;stroke:#000;stroke-width:1.38px;"/><path d="M50.257,339.134l0,0" style="fill:none;fill-rule:nonzero;stroke:#000;stroke-width:1.38px;"/><path d="M22.981,351.712l0,0" style="fill:none;fill-rule:nonzero;stroke:#000;stroke-width:1.38px;"/><path d="M108.899,353.11l0,0" style="fill:none;fill-rule:nonzero;stroke:#000;stroke-width:1.38px;"/><path d="M63.62,311.398l0,0" style="fill:none;fill-rule:nonzero;stroke:#000;stroke-width:1.38px;"/><path d="M76.576,302.313l0,0" style="fill:none;fill-rule:nonzero;stroke:#000;stroke-width:1.38px;"/><path d="M57.483,322.578l0,0" style="fill:none;fill-rule:nonzero;stroke:#000;stroke-width:1.38px;"/><path d="M13.842,304.41l0,0" style="fill:none;fill-rule:nonzero;stroke:#000;stroke-width:1.38px;"/><path d="M58.165,270.168l0,0" style="fill:none;fill-rule:nonzero;stroke:#000;stroke-width:1.38px;"/></g></g><g><clipPath id="_clip7"><rect x="1.904" y="182.421" width="138.633" height="63.293" clip-rule="nonzero"/></clipPath><g clip-path="url(#_clip7)"><path d="M103.287,228.816c5.15,-2.313 8.227,-12.093 3.937,-11.69c-4.297,0.407 -13.27,9.017 -11.977,13.773c1.29,4.76 5.547,-0.963 8.04,-2.083Z" style="fill:none;fill-rule:nonzero;stroke:#000;stroke-width:0.83px;stroke-linecap:butt;stroke-linejoin:miter;"/><path d="M143.402,214.963c-5.623,0 -12.273,7.687 -8.183,9.087c4.093,1.397 15.683,-2.8 16.367,-7.69c0.68,-4.89 -5.457,-1.397 -8.183,-1.397Z" style="fill:none;fill-rule:nonzero;stroke:#000;stroke-width:0.83px;stroke-linecap:butt;stroke-linejoin:miter;"/><path d="M30.207,205.18c-6.137,3.607 -16.847,4.99 -20.017,2.453c-2.967,-2.38 -4.633,-7.583 7.03,-8.737c11.663,-1.147 19.233,2.61 12.987,6.283Z" style="fill:none;fill-rule:nonzero;stroke:#000;stroke-width:0.83px;stroke-linecap:butt;stroke-linejoin:miter;"/><path d="M34.299,180.024c5.153,-9.243 12.957,-3.493 10.91,1.397c-2.047,4.89 -13.637,3.493 -10.91,-1.397Z" style="fill:none;fill-rule:nonzero;stroke:#000;stroke-width:0.83px;stroke-linecap:butt;stroke-linejoin:miter;"/><path d="M128.842,190.702c4.193,-6.273 13.697,-12.593 17.823,-11.677c3.863,0.857 7.757,5 -2.757,11.54c-10.51,6.537 -19.337,6.527 -15.067,0.137Z" style="fill:none;fill-rule:nonzero;stroke:#000;stroke-width:0.83px;stroke-linecap:butt;stroke-linejoin:miter;"/><path d="M35.953,219.836c-5.277,-1.993 -14.11,2.867 -10.743,5.627c1.047,1.14 15.663,2.937 17.957,-1.417c2.283,-4.347 -4.653,-3.24 -7.213,-4.21Z" style="fill:none;fill-rule:nonzero;stroke:#000;stroke-width:0.83px;stroke-linecap:butt;stroke-linejoin:miter;"/><path d="M73.848,198.891c-5.623,0 -12.273,7.687 -8.183,9.087c4.093,1.397 15.683,-2.8 16.367,-7.69c0.68,-4.89 -5.457,-1.397 -8.183,-1.397Z" style="fill:none;fill-rule:nonzero;stroke:#000;stroke-width:0.83px;stroke-linecap:butt;stroke-linejoin:miter;"/><path d="M1.568,244.313c-5.623,0 -12.273,7.687 -8.183,9.087c4.093,1.397 15.683,-2.8 16.367,-7.69c0.68,-4.89 -5.457,-1.397 -8.183,-1.397Z" style="fill:none;fill-rule:nonzero;stroke:#000;stroke-width:0.83px;stroke-linecap:butt;stroke-linejoin:miter;"/><path d="M88.168,243.614c-5.623,0 -12.273,7.687 -8.183,9.087c4.093,1.397 15.683,-2.8 16.367,-7.69c0.68,-4.89 -5.457,-1.397 -8.183,-1.397Z" style="fill:none;fill-rule:nonzero;stroke:#000;stroke-width:0.83px;stroke-linecap:butt;stroke-linejoin:miter;"/><path d="M71.121,219.855c-5.153,-9.243 -12.957,-3.493 -10.91,1.397c2.047,4.89 13.637,3.493 10.91,-1.397Z" style="fill:none;fill-rule:nonzero;stroke:#000;stroke-width:0.83px;stroke-linecap:butt;stroke-linejoin:miter;"/><path d="M101.018,192.34c1.177,5.637 9.893,10.7 10.377,6.31c0.48,-4.39 -5.937,-15.14 -10.747,-14.807c-4.807,0.337 -0.197,5.763 0.37,8.497Z" style="fill:none;fill-rule:nonzero;stroke:#000;stroke-width:0.83px;stroke-linecap:butt;stroke-linejoin:miter;"/><path d="M142.174,240.538c-2.167,-4.037 -13.167,-5.153 -12.55,-1.677c0.62,3.48 7.96,10.19 11.57,8.793c3.607,-1.4 2.033,-5.157 0.98,-7.117Z" style="fill:none;fill-rule:nonzero;stroke:#000;stroke-width:0.83px;stroke-linecap:butt;stroke-linejoin:miter;"/><path d="M49.3,198.192l0,0" style="fill:none;fill-rule:nonzero;stroke:#000;stroke-width:1.38px;"/><path d="M35.663,195.397l0,0" style="fill:none;fill-rule:nonzero;stroke:#000;stroke-width:1.38px;"/><path d="M91.578,183.517l0,0" style="fill:none;fill-rule:nonzero;stroke:#000;stroke-width:1.38px;"/><path d="M4.977,183.517l0,0" style="fill:none;fill-rule:nonzero;stroke:#000;stroke-width:1.38px;"/><path d="M90.488,202.169l0,0" style="fill:none;fill-rule:nonzero;stroke:#000;stroke-width:1.38px;"/><path d="M57.076,211.253l0,0" style="fill:none;fill-rule:nonzero;stroke:#000;stroke-width:1.38px;"/><path d="M25.026,212.651l0,0" style="fill:none;fill-rule:nonzero;stroke:#000;stroke-width:1.38px;"/><path d="M21.343,193.301l0,0" style="fill:none;fill-rule:nonzero;stroke:#000;stroke-width:1.38px;"/><path d="M102.08,208.458l0,0" style="fill:none;fill-rule:nonzero;stroke:#000;stroke-width:1.38px;"/><path d="M115.718,219.639l0,0" style="fill:none;fill-rule:nonzero;stroke:#000;stroke-width:1.38px;"/><path d="M115.444,194l0,0" style="fill:none;fill-rule:nonzero;stroke:#000;stroke-width:1.38px;"/><path d="M61.575,187.011l0,0" style="fill:none;fill-rule:nonzero;stroke:#000;stroke-width:1.38px;"/><path d="M11.796,223.349l0,0" style="fill:none;fill-rule:nonzero;stroke:#000;stroke-width:1.38px;"/><path d="M6.341,214.264l0,0" style="fill:none;fill-rule:nonzero;stroke:#000;stroke-width:1.38px;"/><path d="M26.798,232.433l0,0" style="fill:none;fill-rule:nonzero;stroke:#000;stroke-width:1.38px;"/><path d="M45.209,239.421l0,0" style="fill:none;fill-rule:nonzero;stroke:#000;stroke-width:1.38px;"/><path d="M56.801,228.24l0,0" style="fill:none;fill-rule:nonzero;stroke:#000;stroke-width:1.38px;"/><path d="M81.349,236.626l0,0" style="fill:none;fill-rule:nonzero;stroke:#000;stroke-width:1.38px;"/><path d="M108.625,239.421l0,0" style="fill:none;fill-rule:nonzero;stroke:#000;stroke-width:1.38px;"/><path d="M123.627,242.216l0,0" style="fill:none;fill-rule:nonzero;stroke:#000;stroke-width:1.38px;"/><path d="M67.711,233.831l0,0" style="fill:none;fill-rule:nonzero;stroke:#000;stroke-width:1.38px;"/><path d="M45.209,217.06l0,0" style="fill:none;fill-rule:nonzero;stroke:#000;stroke-width:1.38px;"/><path d="M77.94,191.903l0,0" style="fill:none;fill-rule:nonzero;stroke:#000;stroke-width:1.38px;"/><path d="M127.311,209.157l0,0" style="fill:none;fill-rule:nonzero;stroke:#000;stroke-width:1.38px;"/></g></g><path d="M1.601,182.799l139.25,0" style="fill:none;fill-rule:nonzero;stroke:#000;stroke-width:0.68px;stroke-linecap:butt;stroke-linejoin:miter;stroke-miterlimit:10;"/><path d="M2.492,259.386l0,0" style="fill:none;fill-rule:nonzero;stroke:#000;stroke-width:1.38px;"/><g><clipPath id="_clip8"><rect x="1.904" y="245.714" width="138.633" height="106.893" clip-rule="nonzero"/></clipPath><g clip-path="url(#_clip8)"><path d="M42.3,276.542c6.54,-3.593 17.817,-4.723 21.067,-1.967c3.04,2.587 4.64,8.1 -7.627,8.95c-12.263,0.853 -20.1,-3.32 -13.44,-6.983Z" style="fill:none;fill-rule:nonzero;stroke:#000;stroke-width:0.83px;stroke-linecap:butt;stroke-linejoin:miter;"/><path d="M59.174,294.129c-4.403,-3.583 -14.273,-1.803 -11.92,1.893c2.353,3.7 13.973,7.813 17.48,4.423c3.5,-3.4 -3.423,-4.577 -5.56,-6.317Z" style="fill:none;fill-rule:nonzero;stroke:#000;stroke-width:0.83px;stroke-linecap:butt;stroke-linejoin:miter;"/><path d="M117.538,293.766c-4.313,-3.693 -14.227,-2.163 -11.963,1.593c2.263,3.763 13.79,8.163 17.37,4.857c3.583,-3.307 -3.31,-4.657 -5.407,-6.45Z" style="fill:none;fill-rule:nonzero;stroke:#000;stroke-width:0.83px;stroke-linecap:butt;stroke-linejoin:miter;"/><path d="M120.899,265.277c-5.623,0 -12.273,7.687 -8.183,9.087c4.093,1.397 15.683,-2.797 16.367,-7.69c0.68,-4.89 -5.457,-1.397 -8.183,-1.397Z" style="fill:none;fill-rule:nonzero;stroke:#000;stroke-width:0.83px;stroke-linecap:butt;stroke-linejoin:miter;"/><path d="M132.614,338.874c-3.463,-4.54 -13.47,-5.173 -12.023,-1.013c1.447,4.167 11.813,10.943 15.99,8.477c4.18,-2.463 -2.287,-5.263 -3.967,-7.463Z" style="fill:none;fill-rule:nonzero;stroke:#000;stroke-width:0.83px;stroke-linecap:butt;stroke-linejoin:miter;"/><path d="M76.576,314.193c-5.623,0 -12.273,7.687 -8.183,9.087c4.093,1.397 15.683,-2.8 16.367,-7.69c0.68,-4.89 -5.457,-1.397 -8.183,-1.397Z" style="fill:none;fill-rule:nonzero;stroke:#000;stroke-width:0.83px;stroke-linecap:butt;stroke-linejoin:miter;"/><path d="M40.436,328.868c5.153,-9.243 7.5,-2.097 5.457,2.793c-2.047,4.893 -8.183,2.097 -5.457,-2.793Z" style="fill:none;fill-rule:nonzero;stroke:#000;stroke-width:0.83px;stroke-linecap:butt;stroke-linejoin:miter;"/><path d="M17.933,265.277c5.153,-9.243 12.957,-3.493 10.91,1.397c-2.047,4.893 -13.637,3.493 -10.91,-1.397Z" style="fill:none;fill-rule:nonzero;stroke:#000;stroke-width:0.83px;stroke-linecap:butt;stroke-linejoin:miter;"/><path d="M94.305,261.783c5.153,-9.243 12.957,-3.493 10.91,1.397c-2.047,4.893 -13.637,3.493 -10.91,-1.397Z" style="fill:none;fill-rule:nonzero;stroke:#000;stroke-width:0.83px;stroke-linecap:butt;stroke-linejoin:miter;"/><path d="M14.787,318.912c-4.503,-3.443 -14.32,-1.36 -11.857,2.267c2.467,3.627 14.2,7.373 17.6,3.87c3.403,-3.507 -3.553,-4.467 -5.743,-6.137Z" style="fill:none;fill-rule:nonzero;stroke:#000;stroke-width:0.83px;stroke-linecap:butt;stroke-linejoin:miter;"/><path d="M-5.933,282.048c5.153,-9.243 12.957,-3.493 10.91,1.397c-2.047,4.89 -13.637,3.493 -10.91,-1.397Z" style="fill:none;fill-rule:nonzero;stroke:#000;stroke-width:0.83px;stroke-linecap:butt;stroke-linejoin:miter;"/><path d="M161.243,288.176c-7.247,1.84 -18.51,0.07 -21.01,-3.44c-2.337,-3.297 -2.56,-9.08 9.6,-6.79c12.167,2.293 18.79,8.357 11.41,10.23Z" style="fill:none;fill-rule:nonzero;stroke:#000;stroke-width:0.83px;stroke-linecap:butt;stroke-linejoin:miter;"/><path d="M1.568,244.313c-5.623,0 -12.273,7.687 -8.183,9.087c4.093,1.397 15.683,-2.8 16.367,-7.69c0.68,-4.89 -5.457,-1.397 -8.183,-1.397Z" style="fill:none;fill-rule:nonzero;stroke:#000;stroke-width:0.83px;stroke-linecap:butt;stroke-linejoin:miter;"/><path d="M23.388,305.108c5.153,-9.243 12.957,-3.493 10.91,1.397c-2.047,4.89 -13.637,3.493 -10.91,-1.397Z" style="fill:none;fill-rule:nonzero;stroke:#000;stroke-width:0.83px;stroke-linecap:butt;stroke-linejoin:miter;"/><path d="M128.4,310c-5.623,0 -12.273,7.687 -8.183,9.087c4.093,1.397 15.683,-2.8 16.367,-7.69c0.68,-4.89 -5.457,-1.397 -8.183,-1.397Z" style="fill:none;fill-rule:nonzero;stroke:#000;stroke-width:0.83px;stroke-linecap:butt;stroke-linejoin:miter;"/><path d="M138.628,264.578c5.153,-9.243 7.5,-2.097 5.457,2.793c-2.047,4.893 -8.183,2.097 -5.457,-2.793Z" style="fill:none;fill-rule:nonzero;stroke:#000;stroke-width:0.83px;stroke-linecap:butt;stroke-linejoin:miter;"/><path d="M2.932,347.036c-5.623,0 -12.273,7.687 -8.183,9.087c4.093,1.397 15.683,-2.8 16.367,-7.69c0.68,-4.89 -5.457,-1.397 -8.183,-1.397Z" style="fill:none;fill-rule:nonzero;stroke:#000;stroke-width:0.83px;stroke-linecap:butt;stroke-linejoin:miter;"/><path d="M59.792,249.731c-4.503,-3.443 -14.32,-1.36 -11.857,2.27c2.467,3.623 14.2,7.37 17.6,3.863c3.403,-3.503 -3.553,-4.463 -5.743,-6.133Z" style="fill:none;fill-rule:nonzero;stroke:#000;stroke-width:0.83px;stroke-linecap:butt;stroke-linejoin:miter;"/><path d="M97.715,347.735c-10.163,2.19 -6.513,-4.353 -1.59,-6.033c4.93,-1.687 6.97,4.873 1.59,6.033Z" style="fill:none;fill-rule:nonzero;stroke:#000;stroke-width:0.83px;stroke-linecap:butt;stroke-linejoin:miter;"/><path d="M57.954,342.404c4.98,-5.11 14.933,-9.32 18.627,-7.73c3.467,1.5 6.397,6.057 -4.527,10.29c-10.93,4.233 -19.17,2.643 -14.1,-2.56Z" style="fill:none;fill-rule:nonzero;stroke:#000;stroke-width:0.83px;stroke-linecap:butt;stroke-linejoin:miter;"/><path d="M88.168,243.614c-5.623,0 -12.273,7.687 -8.183,9.087c4.093,1.397 15.683,-2.8 16.367,-7.69c0.68,-4.89 -5.457,-1.397 -8.183,-1.397Z" style="fill:none;fill-rule:nonzero;stroke:#000;stroke-width:0.83px;stroke-linecap:butt;stroke-linejoin:miter;"/><path d="M86.123,282.747c-10.163,2.19 -6.513,-4.353 -1.59,-6.033c4.93,-1.687 6.97,4.873 1.59,6.033Z" style="fill:none;fill-rule:nonzero;stroke:#000;stroke-width:0.83px;stroke-linecap:butt;stroke-linejoin:miter;"/><path d="M129.628,238.862c0.617,3.48 7.957,10.19 11.567,8.793c3.607,-1.397 2.03,-5.157 0.983,-7.117" style="fill:none;fill-rule:nonzero;stroke:#000;stroke-width:0.83px;stroke-linecap:butt;stroke-linejoin:miter;"/><path d="M4.537,269.868l0,0" style="fill:none;fill-rule:nonzero;stroke:#000;stroke-width:1.38px;"/><path d="M14.084,270.567l0,0" style="fill:none;fill-rule:nonzero;stroke:#000;stroke-width:1.38px;"/><path d="M24.995,286.639l0,0" style="fill:none;fill-rule:nonzero;stroke:#000;stroke-width:1.38px;"/><path d="M10.675,293.627l0,0" style="fill:none;fill-rule:nonzero;stroke:#000;stroke-width:1.38px;"/><path d="M39.996,302.711l0,0" style="fill:none;fill-rule:nonzero;stroke:#000;stroke-width:1.38px;"/><path d="M27.04,322.976l0,0" style="fill:none;fill-rule:nonzero;stroke:#000;stroke-width:1.38px;"/><path d="M9.993,332.061l0,0" style="fill:none;fill-rule:nonzero;stroke:#000;stroke-width:1.38px;"/><path d="M88.85,307.205l0,0" style="fill:none;fill-rule:nonzero;stroke:#000;stroke-width:1.38px;"/><path d="M42.724,273.362l0,0" style="fill:none;fill-rule:nonzero;stroke:#000;stroke-width:1.38px;"/><path d="M82.955,264.278l0,0" style="fill:none;fill-rule:nonzero;stroke:#000;stroke-width:1.38px;"/><path d="M98.639,286.639l0,0" style="fill:none;fill-rule:nonzero;stroke:#000;stroke-width:1.38px;"/><path d="M113.641,278.952l0,0" style="fill:none;fill-rule:nonzero;stroke:#000;stroke-width:1.38px;"/><path d="M127.96,292.229l0,0" style="fill:none;fill-rule:nonzero;stroke:#000;stroke-width:1.38px;"/><path d="M139.31,297.421l0,0" style="fill:none;fill-rule:nonzero;stroke:#000;stroke-width:1.38px;"/><path d="M131.37,256.591l0,0" style="fill:none;fill-rule:nonzero;stroke:#000;stroke-width:1.38px;"/><path d="M113.641,257.29l0,0" style="fill:none;fill-rule:nonzero;stroke:#000;stroke-width:1.38px;"/><path d="M119.096,262.181l0,0" style="fill:none;fill-rule:nonzero;stroke:#000;stroke-width:1.38px;"/><path d="M39.996,252.398l0,0" style="fill:none;fill-rule:nonzero;stroke:#000;stroke-width:1.38px;"/></g></g></g><path id="Hole1" serif:id="Hole" d="M53.993,182.418l0,115.25l17.377,8.517l0.057,0l17.377,-8.517l0,-115.25l-34.81,0Z" style="fill:url(#_Linear9);fill-rule:nonzero;"/><g id="Drill-Bit1" serif:id="Drill Bit"><path d="M56.046,119.042l0.01,44.7l0.52,6.937l1.59,7.607l1.62,4.713l-1.62,5.14l-1.513,6.01l-0.443,55.367l-0.153,8.463l1.69,11.537l2.367,7.293l-1.947,6.79l-0.107,11.697l11.393,4.837l4.46,0l2.2,-2.13l2.347,-5.153l5.64,-9.19l-2.34,-6.84l2.34,-9.61l2.307,-9.993l0,-53.647l-1.75,-11.43l-2.67,-6.907l2.597,-8.093l1.823,-8.23l0.333,-11.317l-0.017,-38.55c-8.823,11.133 -22.477,-8.99 -30.677,0" style="fill:#b3b3b3;fill-rule:nonzero;"/><path d="M74.405,300.128c0,0 5.33,-4.637 5.33,-16.387l8.71,0l-0.217,13.897l-14.967,8.09l-2.903,0.103l-15.28,-6.947l-0.723,-1.97l0.207,-13.173l2.613,0" style="fill:#b3b3b3;fill-rule:nonzero;"/><path d="M74.168,299.858l0.207,-0.203c0.967,-0.997 4.997,-5.727 5,-15.913l0.103,-0.257l0.257,-0.103l8.71,0l0.257,0.107l0.103,0.26l-0.217,13.897l-0.187,0.31l-14.963,8.09l-0.16,0.04l-2.907,0.103l-0.163,-0.03l-15.28,-6.947l-0.19,-0.203l-0.723,-1.967l-0.023,-0.13l0.21,-13.173l0.36,-0.357l2.613,0l0.36,0.36l-0.36,0.36l-2.257,0l-0.2,12.753l0.643,1.76l15.067,6.853l2.74,-0.093l14.703,-7.95l0.207,-13.323l-8.343,0l0,-0.36l0.36,0c0.007,11.863 -5.393,16.613 -5.453,16.66l-0.507,-0.037l0.033,-0.507Z" style="fill-rule:nonzero;"/><path d="M58.517,283.6l-0.103,11.7l-0.367,0.353l-0.357,-0.36l0.107,-11.7l0.363,-0.357l0.357,0.363Z" style="fill-rule:nonzero;"/><path d="M74.758,291.415l-0.083,0.35c0,0 -0.583,-0.137 -1.56,-0.28c-0.973,-0.14 -2.333,-0.277 -3.86,-0.277c-3.68,-0.003 -8.287,0.823 -10.913,4.303l-0.29,-0.22l0.137,-0.33l11.33,4.81l4.387,0l0,0.357l-0.323,-0.163c0,0 0.067,-0.127 0.173,-0.383c0.317,-0.773 0.957,-2.657 0.957,-5.137c0,-0.913 -0.087,-1.91 -0.31,-2.957l0.357,-0.073l-0.083,0.35l0.083,-0.35l0.353,-0.073c0.23,1.103 0.323,2.143 0.323,3.103c-0.003,3.473 -1.197,5.817 -1.21,5.847l-0.32,0.2l-4.463,0l-0.14,-0.03l-11.39,-4.837l-0.207,-0.24l0.057,-0.307c2.87,-3.77 7.723,-4.59 11.493,-4.59c3.143,0 5.57,0.573 5.587,0.577l0.27,0.277l-0.353,0.073Z" style="fill-rule:nonzero;"/><path d="M74.449,291.232c0,0 0.74,-1.257 1.86,-3.467c3.357,-6.62 10.067,-21.723 10.06,-36.317l-0.003,-0.677c-0.093,-6.603 -0.123,-13.233 -0.123,-19.137c0,-11.81 0.123,-20.723 0.123,-20.723l0.367,-0.353l0.357,0.363c0,0.007 -0.03,2.227 -0.063,5.93c-0.03,3.703 -0.063,8.88 -0.063,14.783c0,5.9 0.033,12.527 0.127,19.127l0.003,0.687c-0.007,19.74 -12.013,40.123 -12.023,40.15l-0.493,0.127l-0.127,-0.493Z" style="fill-rule:nonzero;"/><path d="M57.797,283.598c0.02,-2.01 1.82,-6.153 4.5,-11.75c4.02,-8.367 10.047,-19.82 15.063,-31.047c5.017,-11.213 9.017,-22.233 9.01,-29.597l-0.007,-0.287c-0.14,-9.877 -1.323,-16.263 -2.467,-20.173c-0.57,-1.95 -1.13,-3.283 -1.543,-4.127c-0.21,-0.42 -0.377,-0.713 -0.497,-0.903l-0.17,-0.267l0.07,-0.5l0.503,0.07c0.063,0.073 4.54,6.033 4.827,25.89l0.003,0.297c-0.013,10.13 -7.18,26.38 -14.32,41.09c-3.577,7.35 -7.15,14.297 -9.823,19.867c-2.673,5.543 -4.447,9.787 -4.43,11.437l-0.357,0.36l-0.363,-0.36Z" style="fill-rule:nonzero;"/><path d="M87.087,119.036l0,0.273c-0.017,10.117 -7.677,24.893 -15.303,39.743c-7.64,14.827 -15.243,29.727 -15.23,39.703l0,53.56l-0.353,0.357l-0.363,-0.357l0,-53.56c0.013,-10.307 7.673,-25.18 15.303,-40.033c7.64,-14.83 15.247,-29.633 15.227,-39.413l-0.003,-0.263l0.357,-0.363l0.367,0.353Z" style="fill-rule:nonzero;"/><path d="M59.769,276.942c-2.88,-7.177 -4.083,-14.227 -4.08,-21.117c0.003,-17.463 7.703,-33.92 15.373,-49.243c7.677,-15.327 15.313,-29.537 15.303,-42.4l-0.147,-45.14l0.357,-0.36l0.363,0.357l0.147,45.143c-0.01,13.147 -7.717,27.403 -15.377,42.723c-7.67,15.317 -15.303,31.673 -15.3,48.92c0,6.807 1.183,13.757 4.03,20.853l-0.203,0.467l-0.467,-0.203Z" style="fill-rule:nonzero;"/><path d="M56.555,119.042l0,40.493l-0.357,0.36l-0.363,-0.36l0,-40.493l0.363,-0.357l0.357,0.357Z" style="fill-rule:nonzero;"/><path d="M59.769,184.157c-2.88,-7.177 -4.083,-14.22 -4.08,-21.113c0,-15.547 6.11,-30.297 12.86,-44.16l0.48,-0.17l0.17,0.483c-6.743,13.84 -12.793,28.49 -12.79,43.847c0,6.807 1.183,13.757 4.03,20.85l-0.203,0.467l-0.467,-0.203Z" style="fill-rule:nonzero;"/><path d="M82.087,276.7l2.34,6.843l-0.22,0.457l-0.46,-0.223l-2.343,-6.843l0.227,-0.457l0.457,0.223Z" style="fill-rule:nonzero;"/></g><path d="M58.883,323.816l4.77,4.77l-3.18,0l-6.36,-6.36l6.36,-6.36l3.18,0l-4.77,4.77l25.02,0l-4.77,-4.77l3.18,0l6.36,6.36l-6.36,6.36l-3.18,0l4.77,-4.77l-25.02,0Z" style="fill:#f00;stroke:#000;stroke-width:0.4px;stroke-linejoin:round;stroke-miterlimit:1.5;"/></g><rect x="1.601" y="1.601" width="139.013" height="351.097" style="fill:none;stroke:#000;stroke-width:0.78px;stroke-linecap:butt;stroke-linejoin:miter;"/></g><defs><linearGradient id="_Linear5" x1="0" y1="0" x2="1" y2="0" gradientUnits="userSpaceOnUse" gradientTransform="matrix(34.797312,0,0,-35.524495,53.992866,244.3013)"><stop offset="0" style="stop-color:#6f6f6f;stop-opacity:1"/><stop offset="0.78" style="stop-color:#fafafa;stop-opacity:1"/><stop offset="0.88" style="stop-color:#d5d5d5;stop-opacity:1"/><stop offset="0.94" style="stop-color:#a3a3a3;stop-opacity:1"/><stop offset="1" style="stop-color:#515151;stop-opacity:1"/></linearGradient><linearGradient id="_Linear9" x1="0" y1="0" x2="1" y2="0" gradientUnits="userSpaceOnUse" gradientTransform="matrix(34.797312,0,0,-35.524495,53.992866,244.3013)"><stop offset="0" style="stop-color:#6f6f6f;stop-opacity:1"/><stop offset="0.78" style="stop-color:#fafafa;stop-opacity:1"/><stop offset="0.88" style="stop-color:#d5d5d5;stop-opacity:1"/><stop offset="0.94" style="stop-color:#a3a3a3;stop-opacity:1"/><stop offset="1" style="stop-color:#515151;stop-opacity:1"/></linearGradient></defs></svg>