<svg width="65" height="71" viewBox="0 0 65 71" fill="none" xmlns="http://www.w3.org/2000/svg">
<g clip-path="url(#clip0)">
<path d="M64.8634 0H0V17.702H64.8634V0Z" fill="#68737A"/>
<path d="M2.24756 3.50781V14.3167H4.49516V11.0172H8.73856V8.76057H4.53247V5.87819H9.96029V3.50781" fill="white"/>
<path d="M15.9198 14.6398C18.9881 14.6398 21.4222 12.1082 21.4222 8.98879C21.4222 5.86938 18.9881 3.20508 15.9198 3.20508C12.8515 3.20508 10.4174 5.88834 10.4174 9.00776C10.4267 12.1177 12.8515 14.6398 15.9198 14.6398Z" fill="white"/>
<path d="M15.9571 12.2881C17.7197 12.2881 19.1186 10.7806 19.1186 8.98857C19.1186 7.19657 17.6917 5.6416 15.9291 5.6416C14.1664 5.6416 12.7395 7.19657 12.7395 8.98857C12.7302 10.7806 14.1944 12.2881 15.9571 12.2881Z" fill="#68737A"/>
<path d="M46.9292 14.6964C49.9975 14.6964 52.4316 12.1649 52.4316 9.04544C52.4316 5.92602 49.9975 3.26172 46.9292 3.26172C43.8609 3.26172 41.4268 5.94498 41.4268 9.0644C41.4361 12.1838 43.8609 14.6964 46.9292 14.6964Z" fill="white"/>
<path d="M46.9571 12.3448C48.7198 12.3448 50.1187 10.8372 50.1187 9.04521C50.1187 7.25321 48.6918 5.69824 46.9292 5.69824C45.1665 5.69824 43.7396 7.25321 43.7396 9.04521C43.7396 10.8372 45.1945 12.3448 46.9571 12.3448Z" fill="#68737A"/>
<path d="M22.4946 6.86463C22.4946 6.86463 22.504 8.14463 23.0822 8.77041C23.0822 8.77041 24.0428 9.97456 25.2458 10.022H27.5214C27.5214 10.022 28.0064 10.1073 28.137 10.3823C28.137 10.3823 28.4167 10.6193 28.3981 11.0555C28.3981 11.0555 28.4447 11.4158 28.2209 11.7097C28.2209 11.7097 27.9691 12.07 27.5774 12.1079H22.504V14.3645H27.7453C27.7453 14.3645 29.3494 14.4498 30.198 12.9138C30.198 12.9138 30.6923 12.2122 30.683 11.008C30.683 11.008 30.711 9.64271 29.7504 8.79886C29.7504 8.79886 28.9203 7.83174 27.5867 7.83174H25.8334C25.8334 7.83174 25.2645 7.77485 25.0593 7.50937C25.0593 7.50937 24.6769 7.24389 24.8075 6.69396C24.8075 6.69396 24.9381 5.96389 25.5256 5.9544H30.198V3.58403H25.4977C25.4977 3.58403 23.9029 3.55558 23.0728 4.93988C23.0822 4.9304 22.5133 5.66048 22.4946 6.86463Z" fill="white"/>
<path d="M32.2592 3.6215V14.3735H34.5068V11.0171H35.7658L37.7802 14.402H40.4102L38.2186 10.6852C38.2186 10.6852 39.1139 10.1922 39.6735 9.34833C39.6735 9.34833 40.2983 8.37174 40.205 7.14862C40.205 7.14862 40.0838 5.78328 39.3004 4.94891C39.3004 4.94891 38.573 4.20936 37.8735 3.93439C37.8735 3.93439 37.286 3.60254 36.4746 3.60254" fill="white"/>
<path d="M59.0066 14.7062C62.0749 14.7062 64.509 12.1746 64.509 9.0552C64.509 5.93579 62.0749 3.27148 59.0066 3.27148C55.9383 3.27148 53.5042 5.95475 53.5042 9.07416C53.5042 12.1841 55.9383 14.7062 59.0066 14.7062Z" fill="white"/>
<path d="M59.0345 12.3545C60.7972 12.3545 62.1961 10.847 62.1961 9.05498C62.1961 7.26297 60.7692 5.70801 59.0066 5.70801C57.2439 5.70801 55.817 7.26297 55.817 9.05498C55.817 10.847 57.2719 12.3545 59.0345 12.3545Z" fill="#68737A"/>
<path d="M62.8209 4.48438L60.8345 6.68408L60.8624 11.3774L62.9608 13.6056L64.1359 11.8515L64.481 11.0171L64.6862 9.38631L64.6302 8.07787L64.3971 6.61771L63.8375 5.46097" fill="#68737A"/>
<path d="M0.0559082 20.8496H11.8628C11.8628 20.8496 11.6856 32.7299 24.8915 32.9101V41.5288C24.8915 41.5288 7.88988 42.6002 3.68378 25.3059H0.0559082" fill="#ED1B2F"/>
<path d="M38.0414 23.2295H29.2189V32.9765H38.0414V23.2295Z" fill="#ED1B2F"/>
<path d="M42.4247 33.0331V41.5854H61.7112V25.429H64.8075V20.9727H53.2337V33.0331" fill="#ED1B2F"/>
<path d="M29.396 34.873L38.0414 41.586V49.01H41.604C41.604 49.01 57.0294 48.9531 60.5361 65.0527H64.9753V70.4571H52.2917V67.8402C52.2917 67.8402 52.1798 58.2165 41.4268 57.6192H29.396V67.1291H5.54904V70.3339H0.121216V58.4536H20.5735V45.919H29.396" fill="#ED1B2F"/>
<path d="M36.5772 11.0843C38.6009 11.0843 40.2423 9.41555 40.2423 7.35807C40.2423 5.30058 38.6009 3.63184 36.5772 3.63184C34.5534 3.63184 32.912 5.30058 32.912 7.35807C32.912 9.41555 34.5534 11.0843 36.5772 11.0843Z" fill="white"/>
<path d="M34.5348 6.00194V8.96965H36.4373C36.4373 8.96965 37.1275 8.97913 37.6031 8.33439C37.6031 8.33439 37.9482 7.87927 37.8083 7.1492C37.8083 7.1492 37.7523 6.52342 36.913 6.09675C36.913 6.09675 36.7358 5.94505 35.7192 5.95453L34.5441 5.96401" fill="#68737A"/>
</g>
<defs>
<clipPath id="clip0">
<path d="M0 0H64.9847V70.4571H0V0Z" fill="white"/>
</clipPath>
</defs>
</svg>
